<?xml version="1.0" encoding="utf-8"?>
<!-- Generator: Adobe Illustrator 16.0.0, SVG Export Plug-In . SVG Version: 6.00 Build 0)  -->
<!DOCTYPE svg PUBLIC "-//W3C//DTD SVG 1.1//EN" "http://www.w3.org/Graphics/SVG/1.1/DTD/svg11.dtd">
<svg version="1.1" id="Layer_1" xmlns="http://www.w3.org/2000/svg" xmlns:xlink="http://www.w3.org/1999/xlink" x="0px" y="0px"
	 width="612px" height="792px" viewBox="0 0 612 792" enable-background="new 0 0 612 792" xml:space="preserve">
<path fill="#FFFFFF" d="M306.137,238.902c-86.882,0-156.962,70.08-156.962,156.961s70.08,156.962,156.962,156.962
	c86.882,0,156.962-70.08,156.962-156.962S393.019,238.902,306.137,238.902z M306.137,497.909
	c-56.146,0-102.045-45.764-102.045-102.046s45.763-102.045,102.045-102.045s102.045,45.763,102.045,102.045
	S362.282,497.909,306.137,497.909L306.137,497.909z M506.13,232.481c0,20.354-16.394,36.61-36.611,36.61
	c-20.354,0-36.61-16.393-36.61-36.61c0-20.218,16.393-36.611,36.61-36.611S506.13,212.263,506.13,232.481z M610.088,269.638
	c-2.322-49.042-13.524-92.483-49.452-128.274c-35.791-35.791-79.232-46.993-128.274-49.452c-50.544-2.869-202.042-2.869-252.586,0
	c-48.905,2.322-92.346,13.524-128.274,49.315S4.508,220.46,2.049,269.502c-2.869,50.544-2.869,202.042,0,252.586
	c2.322,49.042,13.524,92.483,49.452,128.274s79.232,46.993,128.274,49.452c50.545,2.868,202.042,2.868,252.586,0
	c49.042-2.322,92.483-13.524,128.274-49.452c35.791-35.791,46.993-79.232,49.452-128.274
	C612.956,471.544,612.956,320.183,610.088,269.638z M544.789,576.321c-10.655,26.775-31.283,47.403-58.194,58.194
	c-40.299,15.983-135.924,12.295-180.458,12.295s-140.296,3.552-180.458-12.295c-26.775-10.655-47.403-31.282-58.195-58.194
	c-15.983-40.299-12.294-135.924-12.294-180.458c0-44.534-3.552-140.295,12.294-180.458c10.655-26.775,31.283-47.402,58.195-58.194
	c40.299-15.983,135.924-12.295,180.458-12.295s140.295-3.552,180.458,12.295c26.774,10.655,47.402,31.283,58.194,58.194
	c15.983,40.299,12.295,135.924,12.295,180.458C557.084,440.397,560.772,536.159,544.789,576.321z"/>
</svg>
