<?xml version="1.0" encoding="utf-8"?>
<!-- Generator: Adobe Illustrator 16.0.0, SVG Export Plug-In . SVG Version: 6.00 Build 0)  -->
<!DOCTYPE svg PUBLIC "-//W3C//DTD SVG 1.1//EN" "http://www.w3.org/Graphics/SVG/1.1/DTD/svg11.dtd">
<svg version="1.1" id="Layer_1" xmlns="http://www.w3.org/2000/svg" xmlns:xlink="http://www.w3.org/1999/xlink" x="0px" y="0px"
	 width="612px" height="792px" viewBox="0 0 612 792" enable-background="new 0 0 612 792" xml:space="preserve">
<path fill="#FFFFFF" d="M562.071,313.948l50.038-54.44H501.146c-55.551-37.945-122.638-60.044-195.192-60.044
	c-72.463,0-139.364,22.146-194.824,60.044H-0.109l50.038,54.44C19.258,341.931,0.03,382.241,0.03,426.996
	c0,84.461,68.479,152.939,152.94,152.939c40.123,0,76.678-15.475,103.967-40.771l49.019,53.373l49.02-53.326
	c27.287,25.297,63.795,40.725,103.919,40.725c84.461,0,153.032-68.479,153.032-152.939
	C611.972,382.193,592.745,341.886,562.071,313.948z M153.015,530.498c-57.173,0-103.503-46.33-103.503-103.502
	c0-57.174,46.331-103.504,103.503-103.504c57.172,0,103.503,46.331,103.503,103.504
	C256.518,484.168,210.188,530.498,153.015,530.498z M306,423.984c0-68.107-49.528-126.577-114.901-151.549
	c35.351-14.78,74.13-22.98,114.855-22.98c40.726,0,79.548,8.201,114.9,22.98C355.53,297.454,306,355.878,306,423.984z
	 M458.94,530.498c-57.174,0-103.504-46.33-103.504-103.502c0-57.174,46.33-103.504,103.504-103.504
	c57.173,0,103.503,46.331,103.503,103.504C562.443,484.168,516.112,530.498,458.94,530.498z M458.94,372.694
	c-29.978,0-54.254,24.28-54.254,54.255c0,29.977,24.276,54.254,54.254,54.254c29.976,0,54.254-24.277,54.254-54.254
	C513.193,397.019,488.916,372.694,458.94,372.694z M207.269,426.996c0,29.977-24.278,54.252-54.254,54.252
	c-29.975,0-54.253-24.275-54.253-54.252c0-29.978,24.278-54.255,54.253-54.255C182.991,372.694,207.269,397.019,207.269,426.996z"/>
</svg>
