<?xml version="1.0" encoding="utf-8"?>
<!-- Generator: Adobe Illustrator 16.0.0, SVG Export Plug-In . SVG Version: 6.00 Build 0)  -->
<!DOCTYPE svg PUBLIC "-//W3C//DTD SVG 1.1//EN" "http://www.w3.org/Graphics/SVG/1.1/DTD/svg11.dtd">
<svg version="1.1" id="Layer_1" xmlns="http://www.w3.org/2000/svg" xmlns:xlink="http://www.w3.org/1999/xlink" x="0px" y="0px"
	 width="2062px" height="103px" viewBox="0 0 2062 103" enable-background="new 0 0 2062 103" xml:space="preserve">
<g>
	<path fill="#FFFFFF" d="M1092.384,12.359c14.75,0,51.236-12.359,53.565-12.359H1021.74C1045.03,0,1077.635,12.359,1092.384,12.359z
		"/>
	<path fill="#FFFFFF" d="M0,73.887c82.153,0,485.314-40.927,514.813-45.871c20.96-3.296,23.894-3.025,61.327,9.889
		c31.053,10.712,75.626,14.717,76.854,14.008c0.435-0.251-8.539-0.824-15.525-4.944c-6.987-4.12,73.748-27.349,116.446-20.6
		c91.583,14.477,118.774,0,129.641,0c3.512,0-40.366,10.712-93.932,32.96C945.663,7.416,998.451,0,1021.74,0H0"/>
	<path fill="#FFFFFF" d="M1145.949,0c2.329,0,39.591,7.416,39.591,7.416s13.974-4.943,20.184,0
		c5.164,4.109,70.439,26.941,95.485,33.784c5.083,1.388-50.458,6.592-131.194,42.848c54.858-20.875,106.095-35.157,153.709-42.848
		c26.91-6.593,51.235-9.888,72.973-9.888c32.604,0,638.15,42.574,665.304,42.574V0H1145.949z"/>
</g>
</svg>
