<?xml version="1.0" encoding="utf-8"?>
<!-- Generator: Adobe Illustrator 16.0.0, SVG Export Plug-In . SVG Version: 6.00 Build 0)  -->
<!DOCTYPE svg PUBLIC "-//W3C//DTD SVG 1.1//EN" "http://www.w3.org/Graphics/SVG/1.1/DTD/svg11.dtd">
<svg version="1.1" id="Layer_1" xmlns="http://www.w3.org/2000/svg" xmlns:xlink="http://www.w3.org/1999/xlink" x="0px" y="0px"
	 width="738.239px" height="240.666px" viewBox="343.833 466.841 738.239 240.666"
	 enable-background="new 343.833 466.841 738.239 240.666" xml:space="preserve">
<g transform="translate(0.000000,1264.000000) scale(0.100000,-0.100000)">
	<path d="M5662.802,7970.102c-10.825-1.348-49.409-6.094-84.604-10.151c-117.773-14.883-211.182-52.813-314.067-128.604
		c-131.987-97.466-217.275-247.061-248.403-439.277c-15.581-93.408-16.24-163.125-2.71-253.828
		c55.508-368.213,322.188-592.256,705.967-592.256c41.968,0,89.346,2.71,104.912,6.094c15.562,3.389,46.699,10.151,69.043,14.209
		c207.793,40.615,386.479,185.459,460.933,372.954c52.803,134.019,67.012,215.918,60.923,354.673
		c-6.763,154.326-43.32,277.515-116.416,389.194c-78.521,121.162-226.748,225.4-371.597,262.627
		C5862.47,7962.661,5712.211,7976.196,5662.802,7970.102z M5852.324,7899.707c40.615-6.768,164.478-51.436,185.464-67.012
		l14.214-10.82v-558.413c0-307.305,0-561.797,0-565.854c0-11.499-98.149-54.15-160.425-69.722
		c-79.189-20.308-272.1-20.981-350.61-1.353c-50.093,12.871-108.296,33.843-153.647,54.824l-18.945,8.809l-1.357,565.166
		l-2.031,564.517l16.924,11.499c39.937,27.08,134.692,58.203,219.98,72.412C5657.382,7912.568,5783.959,7910.537,5852.324,7899.707z
		"/>
	<path d="M3953.73,7934.917l-16.919-5.43l-2.026-123.862c-2.036-127.92,0.669-142.817,25.713-142.817
		c6.094,0,16.924,6.094,23.013,12.856c10.835,11.504,11.514,23.027,7.451,100.859c-3.389,71.748-2.036,88.667,5.405,95.435
		c7.446,6.104,75.137,7.441,267.368,6.104c141.465-1.372,259.912-4.058,262.622-6.782c2.7-2.71,1.348-8.804-2.71-13.54
		c-4.063-5.41-55.498-103.56-113.711-218.623c-58.887-115.737-155-303.906-213.896-419.653
		c-232.158-454.849-298.486-590.884-294.429-607.144c2.71-8.794,12.861-20.977,24.37-27.744
		c18.276-10.84,54.824-11.519,487.339-11.519c458.906,0,467.71,0,481.245,13.545c12.871,12.861,13.535,22.344,13.535,147.563
		c0,73.086-2.7,137.388-6.094,142.134c-3.379,5.41-14.883,8.12-28.423,6.777l-23.013-2.041l-3.379-121.836l-3.384-121.841
		l-285.645-2.012c-247.729-1.367-286.309,0-286.309,8.11c0,5.425,12.861,33.843,27.754,62.964
		c15.566,29.092,121.157,236.895,234.189,462.28c113.716,225.4,241.641,477.188,283.599,559.077
		c46.035,88.687,77.168,157.715,77.168,169.224c0,37.915,10.156,37.217-475.83,39.932
		C4172.363,7938.974,3963.208,7937.607,3953.73,7934.917z"/>
	<path d="M6611.767,7928.144c-20.991-10.146-21.67-13.535-7.461-33.843c8.809-12.861,16.245-14.902,57.529-14.902h46.718v-622.7
		v-622.72h-56.186c-57.529,0-72.417-5.4-72.417-27.075c0-6.089,5.41-16.245,12.178-22.329
		c11.509-10.151,46.709-11.519,362.802-11.519c210.508,0,369.551,2.72,398.672,7.451
		c152.969,22.339,274.805,129.287,312.695,274.814c12.852,49.404,13.555,164.463,0.684,209.829
		c-23.691,87.295-97.461,178.677-177.324,219.976l-41.309,21.655l44.688,29.79c87.988,58.203,143.496,165.151,142.793,274.121
		c0,44.663-13.516,107.627-29.766,136.719c-53.477,99.512-134.688,165.156-230.801,185.464
		C7323.153,7944.379,6636.123,7939.643,6611.767,7928.144z M7336.669,7607.314l1.367-269.404h-162.441h-162.461v266.021
		c0,146.87,2.031,268.706,4.746,271.411c2.695,2.036,74.453,3.389,160.41,2.72l156.348-2.046L7336.669,7607.314z M7327.196,7272.939
		c9.473-3.384,10.84-37.905,10.84-317.446v-314.067l-35.215-4.067c-19.609-2.012-92.051-3.379-161.074-2.012l-125.225,2.012
		l-2.021,311.362c-0.693,171.24,0,315.415,2.021,320.151c2.031,6.099,38.584,8.12,151.621,8.12
		C7250.028,7276.992,7321.103,7274.97,7327.196,7272.939z"/>
	<path d="M7882.919,7928.808c-13.555-12.856-12.871-19.619,3.359-35.869c10.82-10.825,22.363-13.54,54.16-13.54
		c39.922,0,39.922,0,43.984-21.66c2.012-12.178,2.715-291.709,2.012-621.353l-2.012-599.028l-54.16-2.012
		c-41.27-1.367-56.172-4.751-62.246-12.866c-13.535-17.598-10.84-28.442,10.82-41.284c17.598-10.845,39.277-11.514,254.492-8.14
		c224.727,3.394,235.566,4.063,240.293,16.25c2.031,7.446,3.398,20.308,1.367,29.116c-2.715,14.204-6.797,15.557-39.277,15.557
		h-36.543l-1.348,274.805c-1.367,150.938,0,277.515,2.031,280.898c2.031,3.379,64.961,5.415,148.887,4.741l144.863-2.031
		l3.379-296.465l3.398-296.465l16.914-12.861c15.566-12.178,29.785-13.545,198.32-13.545c112.344,0,186.816,2.72,194.941,6.768
		c14.883,8.14,16.914,35.215,4.063,46.045c-4.746,4.048-28.438,8.11-52.129,9.478l-43.984,2.012l-4.063,189.526
		c-4.766,240.283-8.125,254.502-82.598,333.027c-18.262,19.609-46.699,43.306-63.613,53.452
		c-16.25,9.482-29.102,19.639-27.754,23.022c1.367,3.384,16.934,15.571,35.879,28.438
		c131.992,87.993,183.418,307.974,110.996,471.768c-46.68,106.25-137.402,174.629-259.902,196.284
		c-25.723,4.731-170.566,6.768-387.871,6.768C7942.45,7938.974,7891.688,7937.607,7882.919,7928.808z M8594.267,7871.279
		c3.398-4.736,5.43-146.885,4.063-314.736l-1.348-306.616h-148.887h-148.926v314.736v314.736h144.863
		C8551.63,7879.399,8590.224,7877.377,8594.267,7871.279z"/>
	<path d="M9484.345,7929.487c-11.504-8.115-12.188-12.856-6.094-29.78l6.777-20.308h60.234c33.184,0,60.254-2.021,60.254-4.058
		c0-2.031-4.082-13.535-9.492-25.029c-5.43-12.197-28.438-81.23-51.426-153.662c-23.027-72.422-45.352-144.16-50.762-159.063
		c-33.184-100.854-142.832-437.256-169.219-521.187c-17.598-55.498-52.129-163.789-77.188-240.278l-44.648-138.765l-57.539-2.012
		c-61.602-2.041-77.168-8.813-70.391-31.143c8.789-29.78,17.598-31.147,174.629-31.147c82.578,0,152.969,2.72,157.012,5.435
		c10.176,6.084,14.238,35.859,7.48,47.378c-4.082,5.405-25.723,8.11-68.379,8.11c-54.824,0-63.613,1.367-66.328,11.514
		s67.676,243.667,90,298.496l6.094,14.883h277.539h277.48l6.797-14.883c4.063-8.804,18.945-56.86,33.828-106.953
		c14.902-50.093,35.195-115.068,44.004-143.481c9.473-29.116,16.914-54.15,16.914-55.522c0-2.017-26.387-4.727-58.887-5.405
		c-56.836-2.031-58.887-2.71-63.613-18.955c-2.695-10.825,0-20.977,6.094-29.097c9.473-10.84,30.449-11.519,261.953-11.519
		c235.527,0,252.441,0.679,262.598,12.192c26.406,29.102,6.777,48.73-48.027,48.73c-18.965,0-36.563,4.053-40.625,8.809
		c-3.398,4.048-12.852,29.78-20.313,55.493c-7.441,26.396-20.313,67.007-27.734,91.377
		c-27.09,87.998-69.746,229.458-102.891,338.433c-18.945,61.592-50.078,163.804-70.391,226.753
		c-45.371,142.134-90.703,289.692-117.773,379.038c-10.84,37.222-27.754,94.082-37.246,126.582
		c-12.852,43.296-22.324,61.582-33.145,67.002C9918.231,7940.317,9502.606,7941.679,9484.345,7929.487z M9673.876,7804.272
		c2.676-8.799,16.25-52.798,29.766-97.466c46.035-149.585,69.727-229.453,108.984-358.745
		c20.977-70.386,40.625-134.697,43.984-142.139c9.492-24.36,53.496-167.847,53.496-176.655c0-6.089-54.824-8.115-225.43-8.799
		c-238.242-1.353-282.227,1.353-282.227,17.607c0,5.405,19.629,67.681,43.32,139.424c23.691,71.753,58.887,178.696,77.832,238.257
		c93.438,292.407,133.359,409.502,138.75,407.476C9666.435,7821.875,9671.161,7813.745,9673.876,7804.272z"/>
</g>
<g>
	<path fill="#CA8A04" d="M380.677,662.261h-9.879c-1.032,0-1.682,0.142-1.951,0.423c-0.27,0.281-0.404,0.974-0.404,2.077v34.509
		l0.035,1.374c0.117,2.747,1.652,4.378,4.605,4.895c0.82,0.138,1.23,0.401,1.23,0.79c0,0.505-0.329,0.757-0.986,0.757
		c-0.282,0-0.857-0.07-1.726-0.211c-0.447-0.07-1.503-0.105-3.171-0.105l-2.572-0.035l-2.748,0.035c-0.987,0-1.82,0.035-2.501,0.105
		c-1.339,0.141-2.126,0.211-2.361,0.211c-0.705,0-1.057-0.252-1.057-0.755c0-0.366,0.387-0.595,1.16-0.687
		c1.805-0.234,3.023-0.733,3.656-1.496c0.633-0.764,0.949-2.131,0.949-4.104v-34.896l-0.035-0.916c0-0.845-0.123-1.385-0.369-1.619
		c-0.246-0.235-0.814-0.353-1.705-0.353h-9.316c-1.898,0-3.275,0.381-4.131,1.143c-0.856,0.762-1.518,2.197-1.986,4.307
		c-0.211,0.914-0.527,1.359-0.949,1.336s-0.633-0.338-0.633-0.946c0-0.49,0.141-1.39,0.422-2.698
		c0.352-1.681,0.527-3.071,0.527-4.169c0-1.074,0.123-1.781,0.369-2.12c0.246-0.338,0.769-0.508,1.566-0.508h37.86
		c1.29,0,2.069,0.14,2.339,0.42c0.27,0.28,0.405,1.109,0.405,2.486c0,1.378,0.058,2.382,0.176,3.012
		c0.117,0.794,0.188,1.365,0.211,1.715c0.023,0.701-0.223,1.075-0.738,1.121c-0.422,0.023-0.703-0.34-0.844-1.09
		c-0.305-1.664-0.797-2.748-1.477-3.252C383.969,662.513,382.645,662.261,380.677,662.261z"/>
	<path fill="#CA8A04" d="M427.772,688.241h-12.727c-1.735,0-2.813,0.142-3.234,0.423c-0.422,0.282-0.984,1.222-1.688,2.818
		l-2.306,5.178c-1.041,2.372-1.561,4.134-1.561,5.284c0,1.104,0.275,1.903,0.826,2.396c0.55,0.493,1.635,0.915,3.252,1.268
		c0.703,0.138,1.066,0.412,1.09,0.823c0.023,0.389-0.304,0.583-0.981,0.583c-0.258,0-0.656-0.014-1.193-0.039l-3.367-0.198
		c-1.122-0.053-2.419-0.079-3.893-0.079c-0.678,0-1.204,0.017-1.578,0.05c-1.192,0.13-1.847,0.196-1.964,0.196
		c-0.631,0-0.947-0.217-0.947-0.649c0-0.385,0.199-0.637,0.598-0.757l1.301-0.388c0.469-0.141,1.102-0.709,1.898-1.706
		c0.796-0.996,1.453-2.034,1.969-3.113l1.02-2.322l18.07-40.142c0.304-0.703,0.645-1.056,1.02-1.056
		c0.375,0,0.691,0.341,0.949,1.021l15.117,38.728l0.773,1.901c1.102,2.84,2.016,4.606,2.742,5.299
		c0.726,0.691,2.203,1.238,4.43,1.637c0.726,0.138,1.078,0.424,1.055,0.858c-0.023,0.389-0.352,0.583-0.984,0.583
		c-0.211,0-0.656-0.023-1.336-0.07c-1.219-0.117-3.387-0.176-6.504-0.176c-3.258,0-5.297,0.07-6.117,0.211
		c-0.492,0.094-0.856,0.141-1.09,0.141c-0.61,0-0.914-0.24-0.914-0.721c0-0.366,0.293-0.606,0.879-0.721l1.09-0.247
		c1.172-0.234,1.758-1.033,1.758-2.396c0-1.244-0.715-3.722-2.145-7.433l-1.758-4.65c-0.492-1.291-0.879-2.037-1.16-2.236
		C429.881,688.341,429.084,688.241,427.772,688.241z M428.194,682.581l-5.52-13.922l-0.281-0.738
		c-0.281-0.75-0.586-1.137-0.914-1.16c-0.164-0.023-0.352,0.199-0.563,0.668l-6.855,15.223c-0.305,0.656-0.457,1.09-0.457,1.301
		c0,0.609,0.539,0.914,1.617,0.914l0.949,0.035h10.617c1.172,0,1.758-0.293,1.758-0.879c0-0.164-0.059-0.434-0.176-0.809
		L428.194,682.581z"/>
	<path fill="#CA8A04" d="M479.719,657.655c2.508,0,4.628,0.363,6.363,1.09l2.426,1.02c0.211,0.094,0.422,0.141,0.633,0.141
		c0.281,0,0.563-0.117,0.844-0.352l0.492-0.422c0.07-0.094,0.199-0.141,0.387-0.141c0.585-0.023,0.879,0.551,0.879,1.723
		c0,0.398,0.152,1.582,0.457,3.551l0.563,3.621c0.117,0.773,0.176,1.254,0.176,1.441c0,0.727-0.251,1.09-0.752,1.09
		c-0.382,0-0.765-0.564-1.146-1.693c-0.842-2.54-2.553-4.633-5.134-6.279c-2.582-1.646-5.462-2.469-8.639-2.469
		c-2.523,0-4.632,0.745-6.327,2.235c-1.694,1.489-2.541,3.349-2.541,5.577c0,1.972,0.55,3.673,1.65,5.104
		c0.959,1.22,2.006,2.111,3.142,2.674c1.135,0.564,3.927,1.585,8.374,3.063c8.66,2.834,12.99,7.483,12.99,13.947
		c0,4.38-1.594,7.963-4.781,10.75c-3.188,2.788-7.277,4.181-12.27,4.181c-1.805,0-3.792-0.258-5.959-0.773
		c-2.168-0.516-3.756-1.113-4.764-1.793c-0.422-0.281-0.703-0.58-0.844-0.896s-0.352-1.131-0.633-2.443
		c-0.047-0.188-0.34-1.254-0.879-3.199c-0.61-2.109-0.914-3.609-0.914-4.5c0-0.703,0.239-1.043,0.717-1.02
		c0.43,0.023,0.812,0.6,1.146,1.728c0.842,2.915,2.618,5.359,5.329,7.334s5.656,2.962,8.835,2.962c3.226,0,5.954-0.95,8.187-2.851
		c2.232-1.899,3.349-4.211,3.349-6.933c0-2.604-1.03-4.797-3.09-6.58c-1.054-0.915-4.096-2.217-9.128-3.906
		c-5.197-1.757-8.877-3.7-11.042-5.831c-2.166-2.132-3.248-4.896-3.248-8.292c0-3.793,1.412-6.885,4.236-9.273
		C471.627,658.85,475.266,657.655,479.719,657.655z"/>
	<path fill="#CA8A04" d="M549.244,662.261h-9.879c-1.032,0-1.682,0.142-1.951,0.423c-0.27,0.281-0.404,0.974-0.404,2.077v34.509
		l0.035,1.374c0.117,2.747,1.652,4.378,4.605,4.895c0.82,0.138,1.23,0.401,1.23,0.79c0,0.505-0.329,0.757-0.986,0.757
		c-0.282,0-0.857-0.07-1.726-0.211c-0.447-0.07-1.503-0.105-3.171-0.105l-2.572-0.035l-2.748,0.035c-0.987,0-1.82,0.035-2.501,0.105
		c-1.339,0.141-2.126,0.211-2.361,0.211c-0.705,0-1.057-0.252-1.057-0.755c0-0.366,0.387-0.595,1.16-0.687
		c1.805-0.234,3.023-0.733,3.656-1.496c0.633-0.764,0.949-2.131,0.949-4.104v-34.896l-0.035-0.916c0-0.845-0.123-1.385-0.369-1.619
		c-0.246-0.235-0.814-0.353-1.705-0.353H520.1c-1.898,0-3.275,0.381-4.131,1.143c-0.856,0.762-1.518,2.197-1.986,4.307
		c-0.211,0.914-0.527,1.359-0.949,1.336s-0.633-0.338-0.633-0.946c0-0.49,0.141-1.39,0.422-2.698
		c0.352-1.681,0.527-3.071,0.527-4.169c0-1.074,0.123-1.781,0.369-2.12c0.246-0.338,0.769-0.508,1.566-0.508h37.86
		c1.29,0,2.069,0.14,2.339,0.42c0.27,0.28,0.405,1.109,0.405,2.486c0,1.378,0.058,2.382,0.176,3.012
		c0.117,0.794,0.188,1.365,0.211,1.715c0.023,0.701-0.223,1.075-0.738,1.121c-0.422,0.023-0.703-0.34-0.844-1.09
		c-0.305-1.664-0.797-2.748-1.477-3.252C552.537,662.513,551.213,662.261,549.244,662.261z"/>
	<path fill="#CA8A04" d="M585.054,664.1v14.185c0,1.082,0.1,1.734,0.299,1.958c0.199,0.224,0.803,0.335,1.811,0.335h5.414
		c2.461,0,4.406-0.141,5.836-0.422c1.266-0.258,2.086-0.598,2.461-1.02c0.375-0.422,0.715-1.406,1.02-2.953
		c0.12-0.586,0.419-0.867,0.899-0.844c0.455,0.023,0.683,0.34,0.683,0.947c0,0.163-0.013,0.421-0.039,0.771
		c-0.208,2.268-0.313,4.337-0.313,6.207c0,1.426,0.07,2.84,0.211,4.243c0.047,0.468,0.07,0.807,0.07,1.017
		c0,0.585-0.228,0.877-0.683,0.877c-0.503,0-0.803-0.258-0.899-0.773l-0.21-0.984c-0.281-1.57-0.843-2.637-1.684-3.199
		c-0.842-0.563-2.269-0.844-4.28-0.844h-7.753c-1.146,0-1.913,0.117-2.298,0.353c-0.386,0.234-0.579,0.704-0.579,1.408l0.035,1.162
		v12.96c0,1.996,0.356,3.24,1.071,3.733c0.713,0.493,2.521,0.739,5.424,0.739c9.197,0,15.106-2.074,17.728-6.223
		c0.264-0.398,0.528-0.609,0.792-0.633c0.433-0.023,0.649,0.28,0.649,0.911c0,1.518-0.856,3.328-2.566,5.431
		c-2.063,2.521-4.664,3.783-7.805,3.783c-0.68,0-1.594-0.047-2.742-0.141c-4.477-0.422-8.18-0.633-11.109-0.633
		c-4.102,0-6.996,0.141-8.684,0.422c-0.891,0.164-1.5,0.246-1.828,0.246c-0.75,0-1.125-0.252-1.125-0.757
		c0-0.39,0.304-0.665,0.914-0.825l1.336-0.388c1.688-0.469,2.531-2.112,2.531-4.929l0.035-2.289v-29.752
		c0-3.356-0.369-5.616-1.107-6.778s-2.174-1.743-4.307-1.743c-0.68,0-1.02-0.218-1.02-0.653c0-0.643,0.527-0.964,1.582-0.964
		c0.585,0,1.371,0.059,2.355,0.176c3.352,0.375,7.383,0.563,12.094,0.563c2.859,0,5.391-0.047,7.594-0.141l4.992-0.246
		c1.383-0.047,2.227-0.094,2.531-0.141c0.633-0.094,1.102-0.141,1.406-0.141c0.773,0,1.16,0.339,1.16,1.016
		c0,0.211-0.035,0.479-0.105,0.806c-0.07,0.327-0.164,1.262-0.281,2.803l-0.141,2.066c-0.12,1.354-0.239,2.202-0.359,2.54
		c-0.12,0.339-0.382,0.52-0.788,0.543c-0.454,0.023-0.681-0.328-0.681-1.055v-0.914c0-0.75-0.141-1.465-0.421-2.145
		c-0.444-1.055-1.345-1.758-2.702-2.109c-1.356-0.352-3.849-0.527-7.475-0.527h-5.509c-1.451,0-2.387,0.183-2.808,0.547
		C585.265,662.048,585.054,662.853,585.054,664.1z"/>
	<path fill="#CA8A04" d="M696.296,662.261h-9.879c-1.031,0-1.682,0.142-1.951,0.423s-0.404,0.974-0.404,2.077v34.509l0.035,1.374
		c0.117,2.747,1.652,4.378,4.605,4.895c0.82,0.138,1.23,0.401,1.23,0.79c0,0.505-0.329,0.757-0.986,0.757
		c-0.282,0-0.857-0.07-1.727-0.211c-0.446-0.07-1.503-0.105-3.17-0.105l-2.572-0.035l-2.748,0.035c-0.986,0-1.819,0.035-2.501,0.105
		c-1.339,0.141-2.126,0.211-2.36,0.211c-0.704,0-1.057-0.252-1.057-0.755c0-0.366,0.387-0.595,1.16-0.687
		c1.805-0.234,3.023-0.733,3.656-1.496c0.633-0.764,0.949-2.131,0.949-4.104v-34.896l-0.035-0.916c0-0.845-0.123-1.385-0.369-1.619
		c-0.246-0.235-0.814-0.353-1.705-0.353h-9.316c-1.898,0-3.275,0.381-4.131,1.143s-1.518,2.197-1.986,4.307
		c-0.211,0.914-0.527,1.359-0.949,1.336s-0.633-0.338-0.633-0.946c0-0.49,0.141-1.39,0.422-2.698
		c0.352-1.681,0.527-3.071,0.527-4.169c0-1.074,0.123-1.781,0.369-2.12c0.246-0.338,0.769-0.508,1.566-0.508h37.859
		c1.289,0,2.069,0.14,2.339,0.42c0.271,0.28,0.405,1.109,0.405,2.486c0,1.378,0.059,2.382,0.176,3.012
		c0.117,0.794,0.188,1.365,0.211,1.715c0.023,0.701-0.223,1.075-0.738,1.121c-0.422,0.023-0.703-0.34-0.844-1.09
		c-0.305-1.664-0.797-2.748-1.477-3.252S698.265,662.261,696.296,662.261z"/>
	<path fill="#CA8A04" d="M732.141,668.855v26.358c0,3.289,0.199,5.462,0.598,6.52c0.469,1.197,1.049,2.044,1.74,2.537
		s1.775,0.846,3.252,1.057c1.172,0.161,1.758,0.447,1.758,0.86c0,0.552-0.363,0.827-1.09,0.827c-0.352,0-0.797-0.039-1.336-0.117
		c-0.727-0.104-1.969-0.156-3.727-0.156l-5.098-0.078l-4.148,0.246c-0.68,0.07-1.242,0.105-1.688,0.105
		c-0.633,0-0.949-0.24-0.949-0.722c0-0.411,0.363-0.675,1.09-0.79c1.781-0.305,2.93-0.921,3.445-1.849
		c0.516-0.927,0.773-2.881,0.773-5.862v-30.141c0-2.91-0.334-4.87-1.002-5.88c-0.668-1.009-2.092-1.689-4.271-2.042
		c-0.727-0.138-1.102-0.412-1.125-0.825c-0.023-0.505,0.316-0.757,1.02-0.757c0.188,0,0.398,0.014,0.633,0.039
		c1.711,0.209,3.984,0.313,6.82,0.313c1.734,0,3.223-0.039,4.465-0.117l2.355-0.195c0.445-0.025,0.738-0.039,0.879-0.039
		c0.633,0,0.949,0.218,0.949,0.653c0,0.413-0.305,0.723-0.914,0.929l-1.828,0.705C733.008,661.093,732.141,663.899,732.141,668.855z
		"/>
	<path fill="#CA8A04" d="M802.264,671.19c-1.997,3.488-3.324,5.912-3.981,7.271l-3.136,6.707l-3.594,7.376
		c-0.188,0.422-1.174,2.622-2.959,6.603c-0.729,1.64-1.362,2.985-1.902,4.039c-0.306,0.633-0.518,1.077-0.635,1.335
		c-0.464,1.101-0.962,1.65-1.495,1.65c-0.557,0-1.091-0.573-1.601-1.721c-0.093-0.211-0.421-0.854-0.984-1.932l-0.705-1.475
		l-13.215-28.518l-0.809,17.402c-0.07,1.43-0.105,4.289-0.105,8.578c0,4.125,1.453,6.41,4.359,6.855
		c1.43,0.23,2.145,0.575,2.145,1.035c0,0.528-0.34,0.793-1.018,0.793c-0.444,0-0.876-0.023-1.297-0.07
		c-2.619-0.234-4.643-0.352-6.068-0.352c-1.708,0-3.345,0.105-4.911,0.316c-0.468,0.07-0.83,0.105-1.087,0.105
		c-0.702,0-1.053-0.252-1.053-0.756c0-0.389,0.281-0.641,0.844-0.756c1.711-0.398,2.906-1.196,3.586-2.393s1.09-3.236,1.23-6.122
		l0.492-10.203c0.352-7.388,0.527-12.056,0.527-14.003c0-4.175-0.551-7.266-1.652-9.271s-2.941-3.243-5.52-3.712
		c-0.703-0.114-1.055-0.401-1.055-0.86c0-0.504,0.293-0.757,0.878-0.757c0.211,0,0.598,0.023,1.16,0.07
		c0.327,0.047,1.124,0.07,2.389,0.07c1.921,0,3.139-0.023,3.654-0.07c0.538-0.07,0.972-0.105,1.3-0.105
		c1.007,0,1.851,0.738,2.53,2.215l0.387,0.809l14.651,31.605l1.793,3.621c0.257,0.609,0.444,0.914,0.562,0.914
		c0.141,0,0.316-0.223,0.527-0.669l0.422-0.95l0.315-0.703l16.509-35.399c0.352-0.75,0.615-1.214,0.791-1.39
		s0.486-0.264,0.932-0.264c0.188,0,0.702,0.047,1.546,0.141c0.305,0.023,0.691,0.035,1.16,0.035c1.476,0,2.659-0.047,3.55-0.141
		c0.422-0.023,0.761-0.047,1.019-0.07c0.469-0.023,0.703,0.206,0.703,0.688c0,0.435-0.234,0.71-0.703,0.824l-1.512,0.388
		c-1.195,0.281-2.033,1.015-2.514,2.2s-0.721,3.128-0.721,5.827l0.211,8.485l0.668,19.12l0.176,4.437
		c0,1.784,0.328,3.063,0.984,3.838s1.852,1.291,3.586,1.549c1.242,0.184,1.863,0.493,1.863,0.929c0,0.459-0.433,0.688-1.298,0.688
		c-0.257,0-0.55-0.012-0.877-0.035l-2.736-0.281c-0.913-0.094-1.895-0.141-2.947-0.141c-0.726,0-1.871,0.052-3.438,0.156
		c-2.433,0.13-3.836,0.195-4.21,0.195c-0.679,0-1.018-0.206-1.018-0.617c0-0.366,0.293-0.629,0.879-0.789
		c1.383-0.375,2.309-0.985,2.777-1.83s0.703-2.322,0.703-4.435l-0.141-5.735L802.264,671.19z"/>
	<path fill="#CA8A04" d="M846.335,664.1v14.185c0,1.082,0.1,1.734,0.299,1.958s0.803,0.335,1.811,0.335h5.414
		c2.461,0,4.406-0.141,5.836-0.422c1.266-0.258,2.086-0.598,2.461-1.02s0.715-1.406,1.02-2.953c0.12-0.586,0.419-0.867,0.898-0.844
		c0.456,0.023,0.684,0.34,0.684,0.947c0,0.163-0.014,0.421-0.039,0.771c-0.209,2.268-0.313,4.337-0.313,6.207
		c0,1.426,0.07,2.84,0.211,4.243c0.047,0.468,0.07,0.807,0.07,1.017c0,0.585-0.228,0.877-0.684,0.877
		c-0.503,0-0.803-0.258-0.898-0.773l-0.21-0.984c-0.281-1.57-0.843-2.637-1.685-3.199s-2.269-0.844-4.279-0.844h-7.754
		c-1.146,0-1.912,0.117-2.298,0.353c-0.387,0.234-0.579,0.704-0.579,1.408l0.035,1.162v12.96c0,1.996,0.356,3.24,1.07,3.733
		s2.521,0.739,5.424,0.739c9.197,0,15.107-2.074,17.729-6.223c0.265-0.398,0.528-0.609,0.793-0.633
		c0.432-0.023,0.648,0.28,0.648,0.911c0,1.518-0.855,3.328-2.566,5.431c-2.063,2.521-4.664,3.783-7.805,3.783
		c-0.68,0-1.594-0.047-2.742-0.141c-4.477-0.422-8.18-0.633-11.109-0.633c-4.102,0-6.996,0.141-8.684,0.422
		c-0.891,0.164-1.5,0.246-1.828,0.246c-0.75,0-1.125-0.252-1.125-0.757c0-0.39,0.305-0.665,0.914-0.825l1.336-0.388
		c1.688-0.469,2.531-2.112,2.531-4.929l0.035-2.289v-29.752c0-3.356-0.369-5.616-1.107-6.778s-2.174-1.743-4.307-1.743
		c-0.68,0-1.02-0.218-1.02-0.653c0-0.643,0.527-0.964,1.582-0.964c0.586,0,1.371,0.059,2.355,0.176
		c3.352,0.375,7.383,0.563,12.094,0.563c2.859,0,5.391-0.047,7.594-0.141l4.992-0.246c1.383-0.047,2.227-0.094,2.531-0.141
		c0.633-0.094,1.102-0.141,1.406-0.141c0.773,0,1.16,0.339,1.16,1.016c0,0.211-0.035,0.479-0.105,0.806
		c-0.07,0.327-0.164,1.262-0.281,2.803l-0.141,2.066c-0.12,1.354-0.239,2.202-0.358,2.54c-0.12,0.339-0.383,0.52-0.788,0.543
		c-0.455,0.023-0.682-0.328-0.682-1.055v-0.914c0-0.75-0.141-1.465-0.421-2.145c-0.444-1.055-1.346-1.758-2.702-2.109
		c-1.357-0.352-3.849-0.527-7.475-0.527h-5.51c-1.451,0-2.387,0.183-2.808,0.547C846.545,662.048,846.335,662.853,846.335,664.1z"/>
	<path fill="#CA8A04" d="M902.817,697.125l0.035,1.231c0,2.818,0.27,4.484,0.81,5.001s2.3,0.774,5.281,0.774
		c4.389,0,8.197-0.521,11.425-1.564s5.287-2.42,6.18-4.131c0.328-0.633,0.656-0.949,0.984-0.949c0.375,0,0.551,0.233,0.527,0.7
		c-0.094,1.542-0.856,3.234-2.287,5.079c-2.019,2.546-5.291,3.818-9.818,3.818c-0.751,0-1.619-0.035-2.604-0.105l-3.801-0.281
		c-2.229-0.164-4.586-0.246-7.073-0.246c-2.886,0-5.303,0.141-7.249,0.422c-0.821,0.117-1.479,0.188-1.971,0.211
		c-0.587,0.023-0.88-0.183-0.88-0.618c0-0.365,0.318-0.64,0.956-0.823c1.628-0.493,2.72-1.215,3.274-2.165s0.832-2.553,0.832-4.807
		l0.035-1.62v-31.478c0-3.122-1.266-4.941-3.797-5.457l-1.582-0.317c-0.563-0.114-0.844-0.344-0.844-0.687
		c0-0.526,0.397-0.79,1.193-0.79c0.537,0,1.273,0.047,2.21,0.141c1.59,0.141,3.379,0.211,5.367,0.211
		c2.152,0,4.104-0.059,5.859-0.176c0.889-0.047,1.392-0.07,1.509-0.07c0.562,0,0.842,0.172,0.842,0.516
		c0,0.504-0.34,0.836-1.02,0.996l-1.23,0.282c-2.109,0.516-3.164,2.617-3.164,6.303V697.125z"/>
	<path fill="#CA8A04" d="M956.417,664.1v14.185c0,1.082,0.1,1.734,0.299,1.958s0.803,0.335,1.811,0.335h5.414
		c2.461,0,4.406-0.141,5.836-0.422c1.266-0.258,2.086-0.598,2.461-1.02s0.715-1.406,1.02-2.953c0.12-0.586,0.419-0.867,0.898-0.844
		c0.456,0.023,0.684,0.34,0.684,0.947c0,0.163-0.014,0.421-0.039,0.771c-0.209,2.268-0.313,4.337-0.313,6.207
		c0,1.426,0.07,2.84,0.211,4.243c0.047,0.468,0.07,0.807,0.07,1.017c0,0.585-0.228,0.877-0.684,0.877
		c-0.503,0-0.803-0.258-0.898-0.773l-0.21-0.984c-0.281-1.57-0.843-2.637-1.685-3.199s-2.269-0.844-4.279-0.844h-7.754
		c-1.146,0-1.912,0.117-2.298,0.353c-0.387,0.234-0.579,0.704-0.579,1.408l0.035,1.162v12.96c0,1.996,0.356,3.24,1.07,3.733
		s2.521,0.739,5.424,0.739c9.197,0,15.107-2.074,17.729-6.223c0.265-0.398,0.528-0.609,0.793-0.633
		c0.432-0.023,0.648,0.28,0.648,0.911c0,1.518-0.855,3.328-2.566,5.431c-2.063,2.521-4.664,3.783-7.805,3.783
		c-0.68,0-1.594-0.047-2.742-0.141c-4.477-0.422-8.18-0.633-11.109-0.633c-4.102,0-6.996,0.141-8.684,0.422
		c-0.891,0.164-1.5,0.246-1.828,0.246c-0.75,0-1.125-0.252-1.125-0.757c0-0.39,0.305-0.665,0.914-0.825l1.336-0.388
		c1.688-0.469,2.531-2.112,2.531-4.929l0.035-2.289v-29.752c0-3.356-0.369-5.616-1.107-6.778s-2.174-1.743-4.307-1.743
		c-0.68,0-1.02-0.218-1.02-0.653c0-0.643,0.527-0.964,1.582-0.964c0.586,0,1.371,0.059,2.355,0.176
		c3.352,0.375,7.383,0.563,12.094,0.563c2.859,0,5.391-0.047,7.594-0.141l4.992-0.246c1.383-0.047,2.227-0.094,2.531-0.141
		c0.633-0.094,1.102-0.141,1.406-0.141c0.773,0,1.16,0.339,1.16,1.016c0,0.211-0.035,0.479-0.105,0.806
		c-0.07,0.327-0.164,1.262-0.281,2.803l-0.141,2.066c-0.12,1.354-0.239,2.202-0.358,2.54c-0.12,0.339-0.383,0.52-0.788,0.543
		c-0.455,0.023-0.682-0.328-0.682-1.055v-0.914c0-0.75-0.141-1.465-0.421-2.145c-0.444-1.055-1.346-1.758-2.702-2.109
		c-1.357-0.352-3.849-0.527-7.475-0.527h-5.51c-1.451,0-2.387,0.183-2.808,0.547C956.627,662.048,956.417,662.853,956.417,664.1z"/>
	<path fill="#CA8A04" d="M1016.766,657.655c2.508,0,4.629,0.363,6.363,1.09l2.426,1.02c0.211,0.094,0.422,0.141,0.633,0.141
		c0.281,0,0.563-0.117,0.844-0.352l0.492-0.422c0.07-0.094,0.199-0.141,0.387-0.141c0.586-0.023,0.879,0.551,0.879,1.723
		c0,0.398,0.152,1.582,0.457,3.551l0.563,3.621c0.117,0.773,0.176,1.254,0.176,1.441c0,0.727-0.251,1.09-0.752,1.09
		c-0.383,0-0.765-0.564-1.146-1.693c-0.842-2.54-2.553-4.633-5.135-6.279c-2.581-1.646-5.462-2.469-8.639-2.469
		c-2.523,0-4.633,0.745-6.326,2.235c-1.694,1.489-2.541,3.349-2.541,5.577c0,1.972,0.55,3.673,1.65,5.104
		c0.959,1.22,2.007,2.111,3.142,2.674c1.135,0.564,3.927,1.585,8.374,3.063c8.66,2.834,12.99,7.483,12.99,13.947
		c0,4.38-1.594,7.963-4.781,10.75c-3.188,2.788-7.277,4.181-12.27,4.181c-1.805,0-3.791-0.258-5.959-0.773s-3.756-1.113-4.764-1.793
		c-0.422-0.281-0.703-0.58-0.844-0.896s-0.352-1.131-0.633-2.443c-0.047-0.188-0.34-1.254-0.879-3.199
		c-0.609-2.109-0.914-3.609-0.914-4.5c0-0.703,0.239-1.043,0.717-1.02c0.43,0.023,0.812,0.6,1.146,1.728
		c0.842,2.915,2.617,5.359,5.329,7.334c2.711,1.975,5.656,2.962,8.835,2.962c3.226,0,5.954-0.95,8.187-2.851
		c2.232-1.899,3.349-4.211,3.349-6.933c0-2.604-1.03-4.797-3.09-6.58c-1.054-0.915-4.097-2.217-9.128-3.906
		c-5.196-1.757-8.878-3.7-11.043-5.831c-2.165-2.132-3.247-4.896-3.247-8.292c0-3.793,1.412-6.885,4.236-9.273
		C1008.674,658.85,1012.313,657.655,1016.766,657.655z"/>
	<path fill="#CA8A04" d="M1067.236,657.655c2.508,0,4.629,0.363,6.363,1.09l2.426,1.02c0.211,0.094,0.422,0.141,0.633,0.141
		c0.281,0,0.563-0.117,0.844-0.352l0.492-0.422c0.07-0.094,0.199-0.141,0.387-0.141c0.586-0.023,0.879,0.551,0.879,1.723
		c0,0.398,0.152,1.582,0.457,3.551l0.563,3.621c0.117,0.773,0.176,1.254,0.176,1.441c0,0.727-0.251,1.09-0.752,1.09
		c-0.383,0-0.765-0.564-1.146-1.693c-0.842-2.54-2.553-4.633-5.135-6.279c-2.581-1.646-5.462-2.469-8.639-2.469
		c-2.523,0-4.633,0.745-6.326,2.235c-1.694,1.489-2.541,3.349-2.541,5.577c0,1.972,0.55,3.673,1.65,5.104
		c0.959,1.22,2.007,2.111,3.142,2.674c1.135,0.564,3.927,1.585,8.374,3.063c8.66,2.834,12.99,7.483,12.99,13.947
		c0,4.38-1.594,7.963-4.781,10.75c-3.188,2.788-7.277,4.181-12.27,4.181c-1.805,0-3.791-0.258-5.959-0.773s-3.756-1.113-4.764-1.793
		c-0.422-0.281-0.703-0.58-0.844-0.896s-0.352-1.131-0.633-2.443c-0.047-0.188-0.34-1.254-0.879-3.199
		c-0.609-2.109-0.914-3.609-0.914-4.5c0-0.703,0.239-1.043,0.717-1.02c0.43,0.023,0.812,0.6,1.146,1.728
		c0.842,2.915,2.617,5.359,5.329,7.334c2.711,1.975,5.656,2.962,8.835,2.962c3.226,0,5.954-0.95,8.187-2.851
		c2.232-1.899,3.349-4.211,3.349-6.933c0-2.604-1.03-4.797-3.09-6.58c-1.054-0.915-4.097-2.217-9.128-3.906
		c-5.196-1.757-8.878-3.7-11.043-5.831c-2.165-2.132-3.247-4.896-3.247-8.292c0-3.793,1.412-6.885,4.236-9.273
		C1059.145,658.85,1062.783,657.655,1067.236,657.655z"/>
</g>
</svg>
